<svg xmlns="http://www.w3.org/2000/svg" xmlns:xlink="http://www.w3.org/1999/xlink" viewBox="0 0 478.37 96.47"><defs><style>.cls-1{fill:none;}.cls-2{clip-path:url(#clip-path);}.cls-3{fill:url(#Degradado_sin_nombre_11);}</style><clipPath id="clip-path" transform="translate(0 0)"><path class="cls-1" d="M2.88,0A2.88,2.88,0,0,0,0,2.88V17a3,3,0,0,0,.78,2.39L17.16,35.75a.36.36,0,0,0,.64-.23V18.81a.64.64,0,0,0-.65-.64H4.21a1.54,1.54,0,0,1-1.53-1.53V4.2A1.53,1.53,0,0,1,4.21,2.68H47.63A1.52,1.52,0,0,1,49.15,4.2V16.64a1.52,1.52,0,0,1-1.52,1.53h-13a.64.64,0,0,0-.64.64V67.27a1.52,1.52,0,0,1-1.52,1.52H19.64a.41.41,0,0,0-.32.66L30.69,80.82a4.33,4.33,0,0,0,3.07,1.42H46.13a2.12,2.12,0,0,0,2.11-2.12V51.25a.65.65,0,0,1,.65-.64h1.35c13.9,0,27.39-8.48,27.39-25.4C77.63,10.14,67.24,0,50.24,0Z"/></clipPath><linearGradient id="Degradado_sin_nombre_11" x1="-2025.92" y1="2613.66" x2="-2024.73" y2="2613.66" gradientTransform="matrix(65.26, 0, 0, -65.26, 132219.2, 170618.68)" gradientUnits="userSpaceOnUse"><stop offset="0" stop-color="#3047b0"/><stop offset="1" stop-color="#0087ff"/></linearGradient></defs><g id="Capa_2" data-name="Capa 2"><g id="Capa_1-2" data-name="Capa 1"><polygon points="102.6 34.22 92.34 34.22 92.34 26.03 121.48 26.03 121.48 34.22 111.21 34.22 111.21 68.8 102.6 68.8 102.6 34.22"/><path d="M135.22,52c0-4.15-1.22-6.41-4.33-6.41S126.3,48,126,52Zm-17.41,2.33c0-9.47,4.77-15.46,12.95-15.46,8.37,0,13,6.72,12,18.57H126.3c.68,4.28,3.24,6,7.46,6A18.92,18.92,0,0,0,141,62.14v6.11a19.43,19.43,0,0,1-8.31,1.52c-9.59,0-14.85-5.86-14.85-15.45" transform="translate(0 0)"/><rect x="146.69" y="24.2" width="8.19" height="44.6"/><path d="M175.94,51.81c0-4.15-1.23-6.41-4.34-6.41s-4.58,2.44-4.89,6.41Zm-17.42,2.33c0-9.47,4.77-15.46,13-15.46,8.37,0,13,6.72,12,18.57H167c.67,4.28,3.23,6,7.45,6A18.75,18.75,0,0,0,181.68,62v6.11a19.4,19.4,0,0,1-8.31,1.53c-9.59,0-14.85-5.86-14.85-15.45" transform="translate(0 0)"/><path d="M195.33,59.45a5,5,0,0,0,4.46,3c3.48,0,4.82-3,4.82-8.3s-1.34-8.31-4.82-8.31a5,5,0,0,0-4.46,3Zm6.84,10.14a8.7,8.7,0,0,1-6.84-3V82.24h-8.19V39.47h7.33v3A8.88,8.88,0,0,1,202,38.68c7.88,0,10.75,7.21,10.75,15.46,0,9-3.3,15.45-10.57,15.45" transform="translate(0 0)"/><path d="M232.62,51.81c0-4.15-1.22-6.41-4.34-6.41s-4.58,2.44-4.88,6.41Zm-17.41,2.33c0-9.47,4.77-15.46,12.95-15.46,8.37,0,13,6.72,12,18.57H223.7c.68,4.28,3.24,6,7.46,6A18.75,18.75,0,0,0,238.37,62v6.11a19.43,19.43,0,0,1-8.31,1.53c-9.59,0-14.85-5.86-14.85-15.45" transform="translate(0 0)"/><path d="M243.43,39.47h7.33v4.46c1.77-3.72,5.07-5.43,9.47-5.07v8.31c-3.91-.49-7,.92-8.62,5V68.8h-8.18Z" transform="translate(0 0)"/><path d="M267,46.56h-3.85V39.47H267V35.62c0-7.63,4.83-10.38,10.08-10.38a13,13,0,0,1,5.32,1v6.72a8.33,8.33,0,0,0-3.3-.62c-2.32,0-3.91,1.11-3.91,3.61v3.54h5.86v7.09h-5.86V68.8H267Z" transform="translate(0 0)"/><path d="M290.45,54.14c0,5.37,1.4,8.3,4.95,8.3s4.88-2.93,4.88-8.3-1.4-8.37-4.88-8.37-4.95,3-4.95,8.37m18.08,0c0,9.65-4.7,15.45-13.13,15.45s-13.2-5.8-13.2-15.45,4.7-15.46,13.2-15.46,13.13,5.74,13.13,15.46" transform="translate(0 0)"/><path d="M311.48,39.47h7.33v4.46c1.77-3.72,5.07-5.43,9.47-5.07v8.31c-3.91-.49-7,.92-8.62,5V68.8h-8.18Z" transform="translate(0 0)"/><path d="M369.69,48.09V68.8h-8.07v-19c0-2.39-1.1-3.55-3.05-3.55a4.84,4.84,0,0,0-4.1,2.63V68.8h-8v-19c0-2.39-1.16-3.55-3.05-3.55a4.81,4.81,0,0,0-4.1,2.75V68.8h-8.06V39.47h7.33v2.75A9,9,0,0,1,346,38.68a7.87,7.87,0,0,1,7,3.54,9.81,9.81,0,0,1,7.94-3.54c5.93,0,8.8,4.15,8.8,9.41" transform="translate(0 0)"/><path d="M389,62.32V56.7a12.64,12.64,0,0,0-2.93-.37c-3,0-5,1-5,3.91,0,2.63,1.59,3.79,3.54,3.79a6,6,0,0,0,4.4-1.71m10.87.61v5.75a13.34,13.34,0,0,1-3.91.54A6.76,6.76,0,0,1,390.45,67a12.12,12.12,0,0,1-7.89,2.63c-5,0-9.34-2.93-9.34-9.1s4.58-9.41,11.12-9.41a21.65,21.65,0,0,1,4.7.55V50c0-2.38-1.1-4.46-5.13-4.46a23.23,23.23,0,0,0-8.86,1.83v-7a29.75,29.75,0,0,1,9.65-1.71c8.13,0,12.34,3.6,12.34,12V61.1c0,1.47.74,1.95,1.9,1.95a5.36,5.36,0,0,0,1-.12" transform="translate(0 0)"/><path d="M402.94,39.47h7.33v2.75a9.82,9.82,0,0,1,7.94-3.54c4.65,0,8.86,3.24,8.86,9.35V68.8h-8.19v-19c0-2.51-1.22-3.55-3.36-3.55a5,5,0,0,0-4.39,2.94V68.8h-8.19Z" transform="translate(0 0)"/><path d="M430.49,54.38c0-10.08,5.86-15.7,13.93-15.7A13.83,13.83,0,0,1,450.83,40v6.91a10.58,10.58,0,0,0-5.13-1.23c-4.28,0-7,3.12-7,8.44s2.39,8.3,6.6,8.3a13.72,13.72,0,0,0,5.81-1.22v7.09a16.65,16.65,0,0,1-7.09,1.28c-7.88,0-13.56-5.44-13.56-15.21" transform="translate(0 0)"/><path d="M470.73,51.81c0-4.15-1.23-6.41-4.34-6.41s-4.58,2.44-4.89,6.41Zm-17.41,2.33c0-9.47,4.76-15.46,12.95-15.46,8.37,0,13,6.72,12,18.57H461.81c.67,4.28,3.24,6,7.45,6A18.71,18.71,0,0,0,476.47,62v6.11a19.4,19.4,0,0,1-8.31,1.53c-9.59,0-14.84-5.86-14.84-15.45" transform="translate(0 0)"/><path d="M218.11,88.63h7.45c-.05-3.11-1.14-4.81-3.66-4.81s-3.67,1.68-3.79,4.81m9.08,6.74c.08.38-.05.59-.41.66a18.46,18.46,0,0,1-4.07.43c-4.3,0-6.41-2-6.41-6.79v-.43c0-4.2,1.63-6.77,5.55-6.77,5,0,5.21,4.07,5.32,6.41l0,.33c0,.38-.18.59-.56.59h-8.52c0,3.81,1.45,5.32,4.81,5.32a18.47,18.47,0,0,0,3.66-.39.43.43,0,0,1,.56.39Z" transform="translate(0 0)"/><path d="M231.26,92.52c0,2,1.4,2.72,3.87,2.72a9.43,9.43,0,0,0,3.16-.48V90.33a8.12,8.12,0,0,0-3.39-.66c-2.44,0-3.64.94-3.64,2.67Zm7-3.41v-2.7c0-1.55-.77-2.59-3.26-2.59a23.67,23.67,0,0,0-3.87.41c-.43.07-.48,0-.58-.44l-.06-.2c-.1-.46.08-.59.46-.66a23.53,23.53,0,0,1,4.43-.46c3.41,0,4.58,1.35,4.58,3.94v8.68c0,.41-.08.53-.56.66a12.59,12.59,0,0,1-4.4.71c-3.16,0-5.57-.89-5.57-3.86v-.36c0-2.42,1.8-3.77,5-3.77a11.61,11.61,0,0,1,3.8.64" transform="translate(0 0)"/><path d="M252.18,83.56c-.05.36-.13.46-.43.44a16.82,16.82,0,0,0-2.55-.18c-3.08,0-4.37,1.93-4.37,5.44v.44c0,3.58,1.37,5.42,4.5,5.42a15.32,15.32,0,0,0,2.49-.21c.33,0,.38.28.41.46l.05.3c.05.36-.08.46-.43.52a19.4,19.4,0,0,1-2.85.27c-4.23,0-6-2.34-6-6.81v-.39c0-4.35,1.81-6.79,5.85-6.79a15.61,15.61,0,0,1,2.95.25c.31,0,.49.16.44.54Z" transform="translate(0 0)"/><path d="M265.56,95.65c0,.38-.17.56-.53.56h-.59a.49.49,0,0,1-.56-.56V87.38c0-2.09-.94-3.49-3.25-3.49a11,11,0,0,0-3.87.82V95.65a.49.49,0,0,1-.56.56h-.59a.49.49,0,0,1-.56-.56V77.81a.49.49,0,0,1,.56-.56h.59a.49.49,0,0,1,.56.56v5.5a13.42,13.42,0,0,1,4.33-.84c3.18,0,4.47,1.88,4.47,4.76Z" transform="translate(0 0)"/><path d="M278.9,95.29c.05.36.07.56-.33.69a4.92,4.92,0,0,1-1.38.23c-1.47,0-2.34-.61-2.34-2.88v-10c0-.38.18-.56.54-.56H276a.49.49,0,0,1,.56.56v10c0,1,.31,1.53,1.07,1.53a3.54,3.54,0,0,0,.92-.15c.2,0,.3.1.35.41Zm-3.56-14.81c-.39,0-.56-.17-.56-.56V78.58c0-.39.17-.56.56-.56h.73c.36,0,.54.17.54.56v1.34c0,.39-.18.56-.54.56Z" transform="translate(0 0)"/><path d="M291.34,95.65c0,.38-.18.56-.53.56h-.59a.49.49,0,0,1-.56-.56V87.38c0-2.09-.94-3.49-3.26-3.49a11,11,0,0,0-3.86.82V95.65a.49.49,0,0,1-.56.56h-.59a.49.49,0,0,1-.56-.56V84.33a.86.86,0,0,1,.54-.82,14,14,0,0,1,5.16-1c3.41,0,4.81,1.86,4.81,4.71Z" transform="translate(0 0)"/><path d="M295,84.07h-.92c-.38,0-.55-.18-.55-.56v-.23c0-.38.17-.56.55-.56H295V80.38a.49.49,0,0,1,.56-.56h.59a.49.49,0,0,1,.56.56v2.34h2.41c.41,0,.56.18.56.56v.23c0,.38-.15.56-.56.56h-2.41v8.68c0,1.25.4,2.11,1.75,2.11a5.28,5.28,0,0,0,1.3-.18c.23,0,.38.18.38.54v.25c0,.38,0,.49-.43.54a4.66,4.66,0,0,1-1.43.2C296,96.21,295,95,295,92.75Z" transform="translate(0 0)"/><path d="M303.4,88.63h7.46c-.05-3.11-1.15-4.81-3.66-4.81s-3.67,1.68-3.8,4.81m9.09,6.74c.07.38-.05.59-.41.66a18.54,18.54,0,0,1-4.07.43c-4.3,0-6.41-2-6.41-6.79v-.43c0-4.2,1.62-6.77,5.54-6.77,5,0,5.22,4.07,5.32,6.41l0,.33c0,.38-.18.59-.56.59H303.4c0,3.81,1.45,5.32,4.81,5.32a18.58,18.58,0,0,0,3.67-.39.43.43,0,0,1,.56.39Z" transform="translate(0 0)"/><path d="M322.64,83.51c-.08.46-.13.54-.48.51a9.37,9.37,0,0,0-1.94-.15,8.27,8.27,0,0,0-2.9.53V95.65a.49.49,0,0,1-.56.56h-.58a.49.49,0,0,1-.56-.56V83.82a.62.62,0,0,1,.53-.66,9.68,9.68,0,0,1,4-.69,11.08,11.08,0,0,1,2.26.2c.41.08.38.28.31.69Z" transform="translate(0 0)"/><path d="M325.62,92.52c0,2,1.4,2.72,3.87,2.72a9.36,9.36,0,0,0,3.15-.48V90.33a8.07,8.07,0,0,0-3.38-.66c-2.45,0-3.64.94-3.64,2.67Zm7-3.41v-2.7c0-1.55-.76-2.59-3.26-2.59a23.41,23.41,0,0,0-3.86.41c-.44.07-.49,0-.59-.44l-.05-.2c-.1-.46.08-.59.46-.66a23.36,23.36,0,0,1,4.43-.46c3.41,0,4.58,1.35,4.58,3.94v8.68c0,.41-.08.53-.56.66a12.66,12.66,0,0,1-4.41.71c-3.15,0-5.57-.89-5.57-3.86v-.36c0-2.42,1.81-3.77,5-3.77a11.55,11.55,0,0,1,3.79.64" transform="translate(0 0)"/><path d="M346.53,83.56c0,.36-.12.46-.43.44a16.69,16.69,0,0,0-2.54-.18c-3.08,0-4.38,1.93-4.38,5.44v.44c0,3.58,1.37,5.42,4.5,5.42a15.46,15.46,0,0,0,2.5-.21c.33,0,.38.28.4.46l.06.3c.05.36-.08.46-.44.52a19.28,19.28,0,0,1-2.85.27c-4.22,0-6-2.34-6-6.81v-.39c0-4.35,1.81-6.79,5.86-6.79a15.68,15.68,0,0,1,2.95.25c.3,0,.48.16.43.54Z" transform="translate(0 0)"/><path d="M349.66,84.07h-.91a.49.49,0,0,1-.56-.56v-.23a.49.49,0,0,1,.56-.56h.91V80.38a.49.49,0,0,1,.56-.56h.59a.49.49,0,0,1,.56.56v2.34h2.42c.4,0,.56.18.56.56v.23c0,.38-.16.56-.56.56h-2.42v8.68c0,1.25.41,2.11,1.75,2.11a5.22,5.22,0,0,0,1.3-.18c.23,0,.38.18.38.54v.25c0,.38,0,.49-.43.54a4.64,4.64,0,0,1-1.42.2c-2.34,0-3.29-1.17-3.29-3.46Z" transform="translate(0 0)"/><path d="M360.94,95.29c.05.36.07.56-.33.69a4.92,4.92,0,0,1-1.38.23c-1.47,0-2.34-.61-2.34-2.88v-10c0-.38.18-.56.53-.56H358a.49.49,0,0,1,.56.56v10c0,1,.31,1.53,1.07,1.53a3.4,3.4,0,0,0,.91-.15c.21,0,.31.1.36.41Zm-3.57-14.81c-.38,0-.55-.17-.55-.56V78.58c0-.39.17-.56.55-.56h.74c.36,0,.54.17.54.56v1.34c0,.39-.18.56-.54.56Z" transform="translate(0 0)"/><path d="M372.21,89.24c0-3.44-1.35-5.42-4.1-5.42s-4.09,2-4.09,5.42v.43c0,3.36,1.32,5.45,4.09,5.45s4.1-2.09,4.1-5.45Zm-10,0c0-4.28,2-6.77,5.9-6.77S374,85,374,89.24v.43c0,4.25-2,6.8-5.91,6.8s-5.9-2.55-5.9-6.8Z" transform="translate(0 0)"/><path d="M387.55,95.65c0,.38-.17.56-.53.56h-.59a.49.49,0,0,1-.56-.56V87.38c0-2.09-.94-3.49-3.25-3.49a11,11,0,0,0-3.87.82V95.65a.49.49,0,0,1-.56.56h-.59a.49.49,0,0,1-.56-.56V84.33a.86.86,0,0,1,.54-.82,14,14,0,0,1,5.16-1c3.41,0,4.81,1.86,4.81,4.71Z" transform="translate(0 0)"/><path d="M415.16,95.65c0,.38-.17.56-.56.56H414a.49.49,0,0,1-.56-.56V87.56c0-2.19-.89-3.67-3.18-3.67a7,7,0,0,0-3.46,1.17V95.65c0,.38-.16.56-.54.56h-.61a.49.49,0,0,1-.56-.56V86.06c0-1.3-.89-2.17-3.2-2.17a9.07,9.07,0,0,0-3.41.82V95.65a.49.49,0,0,1-.56.56h-.59a.49.49,0,0,1-.56-.56V84.33a.72.72,0,0,1,.54-.77,11.45,11.45,0,0,1,4.73-1.09,5.23,5.23,0,0,1,3.89,1.2,10.26,10.26,0,0,1,4.45-1.2c3.36,0,4.76,2,4.76,5Z" transform="translate(0 0)"/><path d="M419.74,92.52c0,2,1.4,2.72,3.87,2.72a9.43,9.43,0,0,0,3.16-.48V90.33a8.12,8.12,0,0,0-3.39-.66c-2.44,0-3.64.94-3.64,2.67Zm7-3.41v-2.7c0-1.55-.77-2.59-3.26-2.59a23.67,23.67,0,0,0-3.87.41c-.43.07-.48,0-.58-.44l-.06-.2c-.1-.46.08-.59.46-.66a23.53,23.53,0,0,1,4.43-.46c3.41,0,4.58,1.35,4.58,3.94v8.68c0,.41-.08.53-.56.66a12.59,12.59,0,0,1-4.4.71c-3.16,0-5.57-.89-5.57-3.86v-.36c0-2.42,1.8-3.77,5-3.77a11.61,11.61,0,0,1,3.8.64" transform="translate(0 0)"/><path d="M432.24,84.07h-.92a.49.49,0,0,1-.56-.56v-.23a.49.49,0,0,1,.56-.56h.92V80.38c0-.38.17-.56.56-.56h.58a.49.49,0,0,1,.56.56v2.34h2.42c.41,0,.56.18.56.56v.23c0,.38-.15.56-.56.56h-2.42v8.68c0,1.25.41,2.11,1.76,2.11a5.34,5.34,0,0,0,1.3-.18c.22,0,.38.18.38.54v.25c0,.38,0,.49-.43.54a4.75,4.75,0,0,1-1.43.2c-2.34,0-3.28-1.17-3.28-3.46Z" transform="translate(0 0)"/><path d="M439.67,84.07h-.92a.49.49,0,0,1-.56-.56v-.23a.49.49,0,0,1,.56-.56h.92V80.38a.49.49,0,0,1,.56-.56h.58a.49.49,0,0,1,.56.56v2.34h2.42c.41,0,.56.18.56.56v.23c0,.38-.15.56-.56.56h-2.42v8.68c0,1.25.41,2.11,1.76,2.11a5.21,5.21,0,0,0,1.29-.18c.23,0,.39.18.39.54v.25c0,.38,0,.49-.44.54a4.64,4.64,0,0,1-1.42.2c-2.34,0-3.28-1.17-3.28-3.46Z" transform="translate(0 0)"/><path d="M448,88.63h7.46c-.06-3.11-1.15-4.81-3.67-4.81s-3.66,1.68-3.79,4.81m9.08,6.74c.08.38-.05.59-.4.66a18.61,18.61,0,0,1-4.07.43c-4.3,0-6.42-2-6.42-6.79v-.43c0-4.2,1.63-6.77,5.55-6.77,5,0,5.22,4.07,5.32,6.41l0,.33c0,.38-.17.59-.56.59H448c0,3.81,1.45,5.32,4.81,5.32a18.37,18.37,0,0,0,3.66-.39c.44-.07.54.21.56.39Z" transform="translate(0 0)"/><path d="M467.28,83.51c-.08.46-.13.54-.49.51a9.22,9.22,0,0,0-1.93-.15,8.27,8.27,0,0,0-2.9.53V95.65a.49.49,0,0,1-.56.56h-.59a.49.49,0,0,1-.56-.56V83.82a.63.63,0,0,1,.54-.66,9.67,9.67,0,0,1,3.94-.69,11.19,11.19,0,0,1,2.27.2c.4.08.38.28.3.69Z" transform="translate(0 0)"/><path d="M477.89,83.61c-.05.54-.18.56-.51.51a12.47,12.47,0,0,0-3-.3c-2,0-3.59.33-3.59,1.91,0,3.43,7.61,1.22,7.61,6.84,0,2.57-1.88,3.89-5.14,3.89a28.47,28.47,0,0,1-3.84-.35c-.46,0-.54-.15-.54-.61v-.18c0-.54.23-.61.61-.56a23.2,23.2,0,0,0,3.62.36c2.85,0,3.56-1.12,3.56-2.5,0-4.53-7.58-2.11-7.58-6.89,0-2.73,2.29-3.26,5-3.26a16.25,16.25,0,0,1,3.44.3c.35.06.48.16.43.64Z" transform="translate(0 0)"/><g class="cls-2"><rect class="cls-3" width="77.63" height="82.24"/></g></g></g></svg>