<svg xmlns="http://www.w3.org/2000/svg" xmlns:xlink="http://www.w3.org/1999/xlink" width="42.833" height="42.833" viewBox="0 0 42.833 42.833">
  <defs>
    <linearGradient id="linear-gradient" x1="0.5" x2="0.5" y2="1" gradientUnits="objectBoundingBox">
      <stop offset="0" stop-color="#ff5c00"/>
      <stop offset="1" stop-color="#f5d200"/>
    </linearGradient>
  </defs>
  <g id="Grupo_5153" data-name="Grupo 5153" transform="translate(-1561.566 -90.583)">
    <path id="Trazado_2850" data-name="Trazado 2850" d="M38.945,9.114A21.415,21.415,0,1,1,9.114,3.888,21.415,21.415,0,0,1,38.945,9.114" transform="translate(1561.566 90.583)" fill="#f5d200"/>
    <path id="Trazado_2851" data-name="Trazado 2851" d="M49.389,24.357a17.97,17.97,0,1,1-25.032-4.386,17.97,17.97,0,0,1,25.032,4.386" transform="translate(1547.94 77.32)" fill="url(#linear-gradient)"/>
    <path id="Trazado_2852" data-name="Trazado 2852" d="M76.7,66.139l-.783-2.9a14.573,14.573,0,0,1-3.826.336,1.826,1.826,0,0,1-1.731-1.8l0-.116a1.822,1.822,0,0,1,1.934-1.846,10.636,10.636,0,0,0,3.461-.324c1.737-.47,2.745-1.462,2.415-2.682-.313-1.158-1.487-1.626-3.949-1.778-3.558-.215-6.2-1.138-7-4.095-.725-2.683.6-5.3,3.684-6.819l-.783-2.9,2.988-.808.725,2.682a13.467,13.467,0,0,1,2.89-.351,1.826,1.826,0,1,1-.04,3.651,9.709,9.709,0,0,0-2.781.345c-1.981.536-2.39,1.562-2.16,2.416.272,1.006,1.512,1.358,4.367,1.632,3.974.3,5.89,1.58,6.633,4.324.733,2.713-.56,5.549-3.9,7.107l.841,3.109Z" transform="translate(1507.996 58.501)" fill="#fff"/>
  </g>
</svg>
