<svg id="Grupo_782" data-name="Grupo 782" xmlns="http://www.w3.org/2000/svg" xmlns:xlink="http://www.w3.org/1999/xlink" width="21.881" height="24.32" viewBox="0 0 21.881 24.32">
  <defs>
    <clipPath id="clip-path">
      <rect id="Rectángulo_414" data-name="Rectángulo 414" width="21.881" height="24.32" fill="#3047b0"/>
    </clipPath>
  </defs>
  <g id="Grupo_781" data-name="Grupo 781" clip-path="url(#clip-path)">
    <path id="Trazado_1761" data-name="Trazado 1761" d="M15.616,3.245A8.791,8.791,0,1,0,7.886,17.532a8.9,8.9,0,0,0,.922.048,8.707,8.707,0,0,0,3.7-.821L18.472,24.1a.584.584,0,0,0,.82.085l2.373-1.927a.584.584,0,0,0,.084-.82l-5.957-7.334a8.794,8.794,0,0,0-.177-10.863m.76,6.328a7.624,7.624,0,0,1-13.5,4.022A7.624,7.624,0,0,1,14.71,3.981a7.573,7.573,0,0,1,1.666,5.592M19.01,22.916l-5.468-6.731a9.142,9.142,0,0,0,.793-.573A8.979,8.979,0,0,0,15.014,15l5.463,6.725Z" transform="translate(0 0)" fill="#3047b0"/>
    <path id="Trazado_1762" data-name="Trazado 1762" d="M10.251,3.179a6.436,6.436,0,1,0,4.332,2.344,6.4,6.4,0,0,0-4.332-2.344M12.91,13.67A5.269,5.269,0,1,1,9.578,4.311a5.482,5.482,0,0,1,.553.029,5.268,5.268,0,0,1,2.779,9.33" transform="translate(-0.795 -0.794)" fill="#3047b0"/>
  </g>
</svg>
