<svg xmlns="http://www.w3.org/2000/svg" xmlns:xlink="http://www.w3.org/1999/xlink" width="44.721" height="43.739" viewBox="0 0 44.721 43.739">
  <defs>
    <clipPath id="clip-path">
      <path id="Trazado_5651" data-name="Trazado 5651" d="M18,0a2.765,2.765,0,0,0-1.2.274L8.943,4.058a2.763,2.763,0,0,0-.962.767L2.544,11.644a2.764,2.764,0,0,0-.534,1.109l-1.941,8.5a2.775,2.775,0,0,0-.069.6v.025a2.774,2.774,0,0,0,.069.6l1.941,8.5A2.766,2.766,0,0,0,2.544,32.1l5.437,6.818a2.763,2.763,0,0,0,.962.767L16.8,43.465a2.765,2.765,0,0,0,1.2.274h8.721a2.765,2.765,0,0,0,1.2-.274l7.857-3.784a2.766,2.766,0,0,0,.962-.767L42.177,32.1a2.768,2.768,0,0,0,.534-1.109l1.941-8.5a2.774,2.774,0,0,0,.069-.6v-.025a2.776,2.776,0,0,0-.069-.6l-1.941-8.5a2.766,2.766,0,0,0-.534-1.109L36.74,4.826a2.765,2.765,0,0,0-.962-.767L27.921.275A2.765,2.765,0,0,0,26.721,0Z" transform="translate(0 -0.001)" fill="none"/>
    </clipPath>
    <linearGradient id="linear-gradient" x1="0.5" x2="0.5" y2="1" gradientUnits="objectBoundingBox">
      <stop offset="0" stop-color="#3047b0"/>
      <stop offset="1" stop-color="#0087ff"/>
    </linearGradient>
    <clipPath id="clip-path-2">
      <rect id="Rectángulo_2869" data-name="Rectángulo 2869" width="44.721" height="43.738" fill="none"/>
    </clipPath>
  </defs>
  <g id="Grupo_4767" data-name="Grupo 4767" transform="translate(-369.924 -502)">
    <g id="Grupo_4764" data-name="Grupo 4764" transform="translate(369.924 502.001)" clip-path="url(#clip-path)">
      <path id="Trazado_5654" data-name="Trazado 5654" d="M0,0H44.721V43.738H0Z" transform="translate(0 0)" fill="url(#linear-gradient)"/>
    </g>
    <g id="Grupo_4766" data-name="Grupo 4766" transform="translate(369.924 502)" clip-path="url(#clip-path-2)">
      <path id="Trazado_5652" data-name="Trazado 5652" d="M47.4,24.265H40.214a2.765,2.765,0,0,0-1.2.274l-6.477,3.119a2.766,2.766,0,0,0-.962.767l-4.482,5.62a2.768,2.768,0,0,0-.534,1.109l-1.6,7.009a2.764,2.764,0,0,0,0,1.231l1.6,7.009a2.767,2.767,0,0,0,.534,1.109l4.482,5.621a2.765,2.765,0,0,0,.962.767l6.477,3.119a2.767,2.767,0,0,0,1.2.274H47.4a2.767,2.767,0,0,0,1.2-.274L55.079,57.9a2.763,2.763,0,0,0,.962-.767l4.482-5.621a2.763,2.763,0,0,0,.534-1.109l1.6-7.009a2.768,2.768,0,0,0,0-1.231l-1.6-7.009a2.765,2.765,0,0,0-.534-1.109l-4.482-5.62a2.763,2.763,0,0,0-.962-.767L48.6,24.539a2.765,2.765,0,0,0-1.2-.274" transform="translate(-21.448 -20.91)" fill="#0087ff"/>
      <path id="Trazado_5653" data-name="Trazado 5653" d="M78.594,65.7l3.45,6.991a.919.919,0,0,0,.692.5l7.715,1.121a.919.919,0,0,1,.509,1.568l-5.582,5.441a.919.919,0,0,0-.264.814l1.318,7.683a.919.919,0,0,1-1.334.969l-6.9-3.628a.919.919,0,0,0-.856,0l-6.9,3.628a.919.919,0,0,1-1.334-.969l1.318-7.683a.919.919,0,0,0-.264-.814l-5.582-5.441a.919.919,0,0,1,.509-1.568L72.8,73.2a.919.919,0,0,0,.692-.5l3.45-6.991a.919.919,0,0,1,1.649,0" transform="translate(-55.409 -56.175)" fill="#fff"/>
    </g>
  </g>
</svg>
