<svg id="Grupo_2396" data-name="Grupo 2396" xmlns="http://www.w3.org/2000/svg" xmlns:xlink="http://www.w3.org/1999/xlink" width="238.842" height="274" viewBox="0 0 238.842 274">
  <defs>
    <clipPath id="clip-path">
      <rect id="Rectángulo_1706" data-name="Rectángulo 1706" width="238.842" height="274" fill="none"/>
    </clipPath>
    <clipPath id="clip-path-2">
      <path id="Trazado_4289" data-name="Trazado 4289" d="M120.033,0a10.074,10.074,0,0,0-4.953,1.35L6.253,64.181a10.079,10.079,0,0,0-5.038,8.727V198.57A10.078,10.078,0,0,0,6.253,207.3L115.08,270.127a10.078,10.078,0,0,0,10.077,0L233.983,207.3a10.076,10.076,0,0,0,5.038-8.727V72.908a10.077,10.077,0,0,0-5.038-8.727L125.157,1.35A10.072,10.072,0,0,0,120.2,0Z" transform="translate(-1.215)" fill="none"/>
    </clipPath>
    <radialGradient id="radial-gradient" cx="0.5" cy="0.5" r="0.5" gradientUnits="objectBoundingBox">
      <stop offset="0" stop-color="#3047b0"/>
      <stop offset="1" stop-color="#0087ff"/>
    </radialGradient>
    <clipPath id="clip-path-3">
      <path id="Trazado_4290" data-name="Trazado 4290" d="M119.01,28.632,31.237,79.307A10.078,10.078,0,0,0,26.2,88.033v101.35a10.079,10.079,0,0,0,5.038,8.727l87.773,50.675a10.078,10.078,0,0,0,10.077,0l87.773-50.675a10.079,10.079,0,0,0,5.038-8.727V88.033a10.078,10.078,0,0,0-5.038-8.727L129.087,28.632a10.074,10.074,0,0,0-10.077,0" transform="translate(-26.199 -27.281)" fill="none"/>
    </clipPath>
    <linearGradient id="linear-gradient" x1="0.5" y1="0" x2="0.5" y2="1" xlink:href="#radial-gradient"/>
    <clipPath id="clip-path-6">
      <rect id="Rectángulo_1704" data-name="Rectángulo 1704" width="187.52" height="198.182" fill="none"/>
    </clipPath>
    <clipPath id="clip-path-7">
      <path id="Trazado_4296" data-name="Trazado 4296" d="M24.895,198.181A162.649,162.649,0,0,0,187.52,38.056L123.942,1.35a10.078,10.078,0,0,0-10.077,0L5.038,64.181A10.078,10.078,0,0,0,0,72.907V196.287a163.91,163.91,0,0,0,24.895,1.895" transform="translate(0 0)" fill="none"/>
    </clipPath>
    <linearGradient id="linear-gradient-2" x1="0" y1="1.382" x2="0.005" y2="1.382" xlink:href="#radial-gradient"/>
  </defs>
  <g id="Grupo_2395" data-name="Grupo 2395" clip-path="url(#clip-path)">
    <g id="Grupo_2383" data-name="Grupo 2383" transform="translate(1.036)">
      <g id="Grupo_2382" data-name="Grupo 2382" clip-path="url(#clip-path-2)">
        <path id="Trazado_4297" data-name="Trazado 4297" d="M0,0H237.806V271.927H0Z" transform="translate(0)" fill="url(#radial-gradient)"/>
      </g>
    </g>
    <g id="Grupo_2385" data-name="Grupo 2385" transform="translate(22.338 23.26)">
      <g id="Grupo_2384" data-name="Grupo 2384" clip-path="url(#clip-path-3)">
        <rect id="Rectángulo_1701" data-name="Rectángulo 1701" width="195.698" height="223.305" transform="translate(0 0)" fill="url(#linear-gradient)"/>
      </g>
    </g>
    <g id="Grupo_2387" data-name="Grupo 2387">
      <g id="Grupo_2386" data-name="Grupo 2386" clip-path="url(#clip-path)">
        <path id="Trazado_4291" data-name="Trazado 4291" d="M175.1,295.707l29.581-29.92,35.177-10.15L172.813,147.282l-63.719,41.75Z" transform="translate(-16.079 -21.707)" fill="#0087ff"/>
        <path id="Trazado_4292" data-name="Trazado 4292" d="M82.172,295.707,52.59,265.787l-35.177-10.15L84.459,147.282l63.719,41.75Z" transform="translate(-2.566 -21.707)" fill="#0087ff"/>
        <path id="Trazado_4293" data-name="Trazado 4293" d="M203.286,181.308V105.715a10.078,10.078,0,0,0-5.038-8.727l-65.466-37.8a10.074,10.074,0,0,0-10.077,0l-65.466,37.8a10.076,10.076,0,0,0-5.038,8.727v75.594a10.076,10.076,0,0,0,5.038,8.727l65.466,37.8a10.078,10.078,0,0,0,10.077,0l65.466-37.8a10.078,10.078,0,0,0,5.038-8.727" transform="translate(-7.694 -8.525)" fill="#3047b0"/>
      </g>
    </g>
    <text id="TOP" transform="translate(78.535 117.081)" fill="#fff" font-size="40" font-family="Montserrat-Black, Montserrat" font-weight="800"><tspan x="0" y="0" letter-spacing="-0.009em">T</tspan><tspan y="0">OP</tspan></text>
    <text id="_10" data-name="10" transform="translate(78.535 190.085)" fill="#fff" font-size="83" font-family="Montserrat-Black, Montserrat" font-weight="800"><tspan x="0" y="0">10</tspan></text>
    <g id="Grupo_2394" data-name="Grupo 2394">
      <g id="Grupo_2393" data-name="Grupo 2393" clip-path="url(#clip-path)">
        <path id="Trazado_4294" data-name="Trazado 4294" d="M74.464,154.642a6.948,6.948,0,1,1-6.948-6.948,6.948,6.948,0,0,1,6.948,6.948" transform="translate(-8.927 -21.768)" fill="#fff"/>
        <path id="Trazado_4295" data-name="Trazado 4295" d="M219.116,154.642a6.948,6.948,0,1,1-6.948-6.948,6.948,6.948,0,0,1,6.948,6.948" transform="translate(-30.246 -21.768)" fill="#fff"/>
        <g id="Grupo_2392" data-name="Grupo 2392" opacity="0.2">
          <g id="Grupo_2391" data-name="Grupo 2391">
            <g id="Grupo_2390" data-name="Grupo 2390" clip-path="url(#clip-path-6)">
              <g id="Grupo_2389" data-name="Grupo 2389" transform="translate(0 0)">
                <g id="Grupo_2388" data-name="Grupo 2388" clip-path="url(#clip-path-7)">
                  <rect id="Rectángulo_1703" data-name="Rectángulo 1703" width="187.52" height="198.631" transform="translate(0 -0.45)" fill="url(#linear-gradient-2)"/>
                </g>
              </g>
            </g>
          </g>
        </g>
      </g>
    </g>
  </g>
</svg>
