<svg id="Grupo_4749" data-name="Grupo 4749" xmlns="http://www.w3.org/2000/svg" xmlns:xlink="http://www.w3.org/1999/xlink" width="38.836" height="43.738" viewBox="0 0 38.836 43.738">
  <defs>
    <clipPath id="clip-path">
      <path id="Trazado_5644" data-name="Trazado 5644" d="M17.635.476,1.783,9.628A3.576,3.576,0,0,0,0,12.717v18.3A3.577,3.577,0,0,0,1.783,34.11l15.852,9.152a3.576,3.576,0,0,0,3.566,0L37.053,34.11a3.577,3.577,0,0,0,1.783-3.089v-18.3a3.576,3.576,0,0,0-1.783-3.088L21.2.476a3.577,3.577,0,0,0-3.566,0" fill="none"/>
    </clipPath>
    <linearGradient id="linear-gradient" x1="0.5" x2="0.5" y2="1" gradientUnits="objectBoundingBox">
      <stop offset="0" stop-color="#3047b0"/>
      <stop offset="1" stop-color="#0087ff"/>
    </linearGradient>
    <clipPath id="clip-path-2">
      <rect id="Rectángulo_2860" data-name="Rectángulo 2860" width="38.836" height="43.738" fill="none"/>
    </clipPath>
  </defs>
  <g id="Grupo_4746" data-name="Grupo 4746">
    <g id="Grupo_4745" data-name="Grupo 4745" clip-path="url(#clip-path)">
      <path id="Trazado_5650" data-name="Trazado 5650" d="M0,0H38.836V43.738H0Z" transform="translate(0 0)" fill="url(#linear-gradient)"/>
    </g>
  </g>
  <g id="Grupo_4748" data-name="Grupo 4748">
    <g id="Grupo_4747" data-name="Grupo 4747" clip-path="url(#clip-path-2)">
      <path id="Trazado_5645" data-name="Trazado 5645" d="M40.048,26.067a2.148,2.148,0,0,0-1.074.287L25.023,34.408a2.153,2.153,0,0,0-1.074,1.86V52.377a2.153,2.153,0,0,0,1.074,1.86l13.951,8.055a2.153,2.153,0,0,0,2.147,0l13.951-8.055a2.153,2.153,0,0,0,1.074-1.86V36.268a2.153,2.153,0,0,0-1.074-1.86L41.121,26.354a2.148,2.148,0,0,0-1.074-.287" transform="translate(-20.629 -22.454)" fill="#0087ff"/>
    </g>
  </g>
  <text id="_1" data-name="+1" transform="translate(10.419 27.869)" fill="#fff" font-size="24" font-family="SancoaleSoftenedBold, SancoaleSoftened"><tspan x="0" y="0">+1</tspan></text>
</svg>
