<svg id="settings" xmlns="http://www.w3.org/2000/svg" width="29.978" height="29.978" viewBox="0 0 29.978 29.978">
  <circle id="Elipse_72" data-name="Elipse 72" cx="4" cy="4" r="4" transform="translate(10.977 11)" fill="none" stroke="#fff" stroke-linecap="round" stroke-linejoin="round" stroke-width="2"/>
  <path id="Trazado_3286" data-name="Trazado 3286" d="M24.4,18.8a2.1,2.1,0,0,0,.42,2.315l.076.076a2.545,2.545,0,1,1-3.6,3.6l-.076-.076a2.115,2.115,0,0,0-3.586,1.5v.216a2.543,2.543,0,0,1-5.087,0V26.32a2.1,2.1,0,0,0-1.373-1.92,2.1,2.1,0,0,0-2.315.42l-.076.076a2.545,2.545,0,1,1-3.6-3.6l.076-.076a2.115,2.115,0,0,0-1.5-3.586H3.543a2.543,2.543,0,0,1,0-5.087h.114a2.1,2.1,0,0,0,1.92-1.373,2.1,2.1,0,0,0-.42-2.315l-.076-.076a2.545,2.545,0,1,1,3.6-3.6l.076.076a2.1,2.1,0,0,0,2.315.42h.1a2.1,2.1,0,0,0,1.272-1.92V3.543a2.543,2.543,0,0,1,5.087,0v.114a2.115,2.115,0,0,0,3.586,1.5l.076-.076a2.545,2.545,0,1,1,3.6,3.6l-.076.076a2.1,2.1,0,0,0-.42,2.315v.1a2.1,2.1,0,0,0,1.92,1.272h.216a2.543,2.543,0,0,1,0,5.087H26.32A2.1,2.1,0,0,0,24.4,18.8Z" transform="translate(0 0)" fill="none" stroke="#fff" stroke-linecap="round" stroke-linejoin="round" stroke-width="2"/>
</svg>
